<?xml version="1.0" encoding="UTF-8" standalone="no"?>
<!-- Created with Inkscape (http://www.inkscape.org/) -->

<svg
   xmlns:a="http://ns.adobe.com/AdobeSVGViewerExtensions/3.0/"
   xmlns:dc="http://purl.org/dc/elements/1.1/"
   xmlns:cc="http://creativecommons.org/ns#"
   xmlns:rdf="http://www.w3.org/1999/02/22-rdf-syntax-ns#"
   xmlns:svg="http://www.w3.org/2000/svg"
   xmlns="http://www.w3.org/2000/svg"
   xmlns:xlink="http://www.w3.org/1999/xlink"
   xmlns:sodipodi="http://sodipodi.sourceforge.net/DTD/sodipodi-0.dtd"
   xmlns:inkscape="http://www.inkscape.org/namespaces/inkscape"
   version="1.0"
   width="218.91721"
   height="246.35269"
   id="svg2"
   sodipodi:version="0.32"
   inkscape:version="0.92.4 (5da689c313, 2019-01-14)"
   sodipodi:docname="cpp-nb.svg"
   inkscape:output_extension="org.inkscape.output.svg.inkscape"
   inkscape:export-filename="C:\Users\adishavit\Desktop\cpp-nb.png"
   inkscape:export-xdpi="350.82001"
   inkscape:export-ydpi="350.82001">
  <metadata
     id="metadata11">
    <rdf:RDF>
      <cc:Work
         rdf:about="">
        <dc:format>image/svg+xml</dc:format>
        <dc:type
           rdf:resource="http://purl.org/dc/dcmitype/StillImage" />
        <dc:title />
      </cc:Work>
    </rdf:RDF>
  </metadata>
  <sodipodi:namedview
     inkscape:window-height="801"
     inkscape:window-width="1536"
     inkscape:pageshadow="2"
     inkscape:pageopacity="0.0"
     guidetolerance="10.0"
     gridtolerance="10.0"
     objecttolerance="10.0"
     borderopacity="1.0"
     bordercolor="#666666"
     pagecolor="#ffffff"
     id="base"
     showgrid="false"
     inkscape:zoom="1.5602545"
     inkscape:cx="-35.529667"
     inkscape:cy="64.745444"
     inkscape:window-x="-8"
     inkscape:window-y="1192"
     inkscape:current-layer="layer6"
     showguides="true"
     inkscape:guide-bbox="true"
     inkscape:window-maximized="1" />
  <defs
     id="defs4">
    <inkscape:perspective
       sodipodi:type="inkscape:persp3d"
       inkscape:vp_x="0 : 180 : 1"
       inkscape:vp_y="0 : 1000 : 0"
       inkscape:vp_z="400 : 180 : 1"
       inkscape:persp3d-origin="200 : 120 : 1"
       id="perspective13" />
    <linearGradient
       x1="92.604424"
       y1="304.50995"
       x2="263.82959"
       y2="26.290426"
       id="linearGradient3199"
       xlink:href="#linearGradient2889"
       gradientUnits="userSpaceOnUse" />
    <linearGradient
       id="linearGradient2889">
      <stop
         style="stop-color:#a0a3e1;stop-opacity:1"
         offset="0"
         id="stop2891" />
      <stop
         style="stop-color:#dedcfa;stop-opacity:1"
         offset="1"
         id="stop2893" />
    </linearGradient>
    <polygon
       id="triangle"
       points="25.23686,14.570508 0,-29.141016 -25.23686,14.570508 "
       style="fill-opacity:0;stroke:#0048c8;stroke-width:5.5" />
    <linearGradient
       y2="123.21392"
       x2="132.62358"
       y1="151.1393"
       x1="133.17909"
       gradientUnits="userSpaceOnUse"
       id="linearGradient2192"
       xlink:href="#XMLID_17_"
       inkscape:collect="always" />
    <linearGradient
       gradientUnits="userSpaceOnUse"
       y2="123.21392"
       x2="132.62358"
       y1="151.1393"
       x1="133.17909"
       id="linearGradient7085"
       xlink:href="#XMLID_17_"
       inkscape:collect="always" />
    <linearGradient
       y2="141.97276"
       x2="269.33331"
       y1="141.97266"
       x1="87.396973"
       gradientTransform="matrix(1.567692,0,0,1.567692,-129.3714,-94.56962)"
       gradientUnits="userSpaceOnUse"
       id="linearGradient3188"
       xlink:href="#XMLID_22_"
       inkscape:collect="always" />
    <linearGradient
       x1="126.18921"
       y1="39.617504"
       x2="126.18921"
       y2="112.30453"
       id="XMLID_17_"
       gradientUnits="userSpaceOnUse"
       gradientTransform="matrix(1.567692,0,0,1.567692,-69.82581,15.22741)">
      <stop
         style="stop-color:#c200be;stop-opacity:1;"
         offset="0"
         id="stop18" />
      <stop
         style="stop-color:#c200be;stop-opacity:1;"
         offset="0.19460699"
         id="stop20" />
      <stop
         style="stop-color:#1000ae;stop-opacity:1;"
         offset="0.31460699"
         id="stop22" />
      <stop
         style="stop-color:#1000ae;stop-opacity:1;"
         offset="0.72999996"
         id="stop24" />
      <stop
         style="stop-color:#00dab6;stop-opacity:1;"
         offset="0.85707897"
         id="stop26" />
      <stop
         style="stop-color:#00dab6;stop-opacity:1;"
         offset="1"
         id="stop28" />
      <a:midPointStop
         style="stop-color:#CF0000"
         offset="0" />
      <a:midPointStop
         style="stop-color:#CF0000"
         offset="0.5" />
      <a:midPointStop
         style="stop-color:#7C0000"
         offset="0.157303" />
      <a:midPointStop
         style="stop-color:#7C0000"
         offset="0.5" />
      <a:midPointStop
         style="stop-color:#CF0000"
         offset="0.314607" />
      <a:midPointStop
         style="stop-color:#CF0000"
         offset="0.5" />
      <a:midPointStop
         style="stop-color:#B80000"
         offset="0.65" />
      <a:midPointStop
         style="stop-color:#B80000"
         offset="0.5" />
      <a:midPointStop
         style="stop-color:#CF0000"
         offset="0.837079" />
      <a:midPointStop
         style="stop-color:#CF0000"
         offset="0.5" />
      <a:midPointStop
         style="stop-color:#FF0000"
         offset="1" />
    </linearGradient>
    <linearGradient
       gradientTransform="matrix(1.567692,0,0,1.567692,-129.3714,-94.56962)"
       gradientUnits="userSpaceOnUse"
       xlink:href="#XMLID_22_"
       id="linearGradient1945"
       y2="141.97276"
       x2="269.33331"
       y1="141.97266"
       x1="87.396973" />
    <linearGradient
       gradientTransform="matrix(1.567692,0,0,1.567692,-129.3706,-94.56783)"
       gradientUnits="userSpaceOnUse"
       id="XMLID_22_"
       y2="141.97266"
       x2="240.94727"
       y1="141.97266"
       x1="87.396973">
      <stop
         id="stop139"
         offset="0"
         style="stop-color:#ffffff;stop-opacity:0.66666675" />
      <stop
         id="stop143"
         offset="0.24074516"
         style="stop-color:#d7d7d7;stop-opacity:0.21875" />
      <stop
         id="stop145"
         offset="0.4585622"
         style="stop-color:#4d4d4d;stop-opacity:0" />
      <stop
         id="stop3696"
         offset="0.71891773"
         style="stop-color:#ffffff;stop-opacity:0.51041669" />
      <stop
         id="stop2807"
         offset="0.87351298"
         style="stop-color:#f2f2f2;stop-opacity:0.40000001" />
      <stop
         id="stop3694"
         offset="1"
         style="stop-color:#ffffff;stop-opacity:0.62352943" />
      <a:midPointStop
         offset="0"
         style="stop-color:#E9E9EF" />
      <a:midPointStop
         offset="0.5"
         style="stop-color:#E9E9EF" />
      <a:midPointStop
         offset="0.157303"
         style="stop-color:#B1B1C5" />
      <a:midPointStop
         offset="0.5"
         style="stop-color:#B1B1C5" />
      <a:midPointStop
         offset="0.314607"
         style="stop-color:#CECEDB" />
      <a:midPointStop
         offset="0.5"
         style="stop-color:#CECEDB" />
      <a:midPointStop
         offset="0.65"
         style="stop-color:#FFFFFF" />
      <a:midPointStop
         offset="0.5"
         style="stop-color:#FFFFFF" />
      <a:midPointStop
         offset="0.837079"
         style="stop-color:#CECEDB" />
      <a:midPointStop
         offset="0.5"
         style="stop-color:#CECEDB" />
      <a:midPointStop
         offset="1"
         style="stop-color:#FFFF66" />
    </linearGradient>
    <inkscape:perspective
       id="perspective2502"
       inkscape:persp3d-origin="30 : 20 : 1"
       inkscape:vp_z="60 : 30 : 1"
       inkscape:vp_y="0 : 1000 : 0"
       inkscape:vp_x="0 : 30 : 1"
       sodipodi:type="inkscape:persp3d" />
    <linearGradient
       inkscape:collect="always"
       xlink:href="#XMLID_22_"
       id="linearGradient3833"
       gradientUnits="userSpaceOnUse"
       gradientTransform="matrix(1.567692,0,0,1.567692,-129.3714,-94.56962)"
       x1="87.396973"
       y1="141.97266"
       x2="269.33331"
       y2="141.97276" />
  </defs>
  <g
     id="g3803"
     style="display:inline"
     transform="matrix(1.1339286,0,0,1.1339286,273.66825,-312.7376)" />
  <g
     sodipodi:insensitive="true"
     style="display:inline"
     inkscape:label="ombre"
     id="g3807"
     transform="matrix(1.1339286,0,0,1.1339286,273.66825,-312.7376)">
    <path
       sodipodi:nodetypes="ccccc"
       d="m 248.35974,206.96001 c -80.24012,-42.45169 -160.480231,51.37712 -240.7195788,8.92543 0,-55.61478 0,-111.63878 0,-167.25432 C 87.981616,90.163083 169.3449,-2.0312598 248.35974,40.114878 c 0,55.614786 0,111.230352 0,166.845132 z"
       style="fill:url(#linearGradient3833)"
       id="path3805"
       inkscape:connector-curvature="0" />
  </g>
  <g
     id="g2524"
     transform="matrix(0.30980468,0,0,0.30980468,1099.9273,166.73719)">
    <g
       id="layer2"
       style="display:inline" />
    <g
       sodipodi:insensitive="true"
       style="display:inline"
       inkscape:label="ombre"
       id="g2960">
      <path
         sodipodi:nodetypes="ccccc"
         d="m 248.35974,206.96001 c -80.24012,-42.45169 -160.480231,51.37712 -240.7195788,8.92543 0,-55.61478 0,-111.63878 0,-167.25432 C 87.981616,90.163083 169.3449,-2.0312598 248.35974,40.114878 c 0,55.614786 0,111.230352 0,166.845132 z"
         style="fill:url(#linearGradient1945)"
         id="path5924"
         inkscape:connector-curvature="0" />
    </g>
    <path
       d="M 248.36055,32.472022 C 167.27229,-10.429768 86.183274,85.849332 5.0950169,40.005058 2.2811336,38.417463 1.7853684e-5,39.212792 1.7853684e-5,42.029738 c 0,57.313381 0,114.627522 0,171.940902 0,2.81082 2.281115746316,6.57849 5.094999046316,8.16455 81.9363991,46.325 163.8735731,-52.46409 245.8099731,-6.13986 2.81388,1.58682 5.095,0.79226 5.095,-2.02469 0,-57.31338 0,-114.627521 0,-171.940902 0,-2.810823 -2.28112,-6.577723 -5.095,-8.165317 -0.84814,-0.479187 -1.69629,-0.943066 -2.54444,-1.392399 z"
       style="fill:#4d4d4d"
       id="path15"
       inkscape:connector-curvature="0" />
    <path
       d="m 248.36055,37.567021 c 0,1.853979 -14.89154,-10.205307 -37.30922,-11.054219 -22.41617,-2.351538 -52.35541,6.505769 -82.45234,15.426609 C 98.502062,50.838819 68.2505,59.830085 45.210481,57.499214 22.170459,56.646475 6.3427413,44.472367 5.0950169,45.100057 c 0,4.876072 0,167.063303 0,171.940903 1.234711,-0.80222 16.9070381,11.48136 39.7977911,12.39534 22.889987,2.39899 52.99917,-6.56931 83.107572,-15.50775 30.10919,-8.92926 60.21836,-17.85624 83.10759,-15.43733 22.89075,0.93235 38.56307,13.21056 39.79702,12.40911 0,-4.87761 0,-167.064838 0,-171.94091 -1.27375,-0.722609 -2.54444,-1.392399 -2.54444,-1.392399 z"
       style="fill:#ffffff;fill-opacity:1"
       id="path30"
       inkscape:connector-curvature="0" />
    <polyline
       id="polyline3117"
       points="0,256 0,0 256,0 256,256 "
       style="fill:none" />
    <path
       d="m 248.36055,206.93136 c -80.24011,-42.45245 -160.478693,51.3756 -240.7180336,8.92697 0,-55.61555 0,-111.23111 0,-166.845873 C 87.881857,91.461852 168.12198,-2.3669621 248.36055,40.085493 c 0,55.615557 0,111.231087 0,166.845867 z"
       style="fill:#ffffff;fill-opacity:1"
       id="path45"
       inkscape:connector-curvature="0" />
    <path
       sodipodi:nodetypes="cccccc"
       d="m 203.20002,153.99804 c -65.1947,-0.76216 -130.405548,55.22045 -195.6000194,20.4 0,5.51708 0,20.7851 0,25.84819 80.2393494,41.4542 160.5614394,-50.59105 240.8000194,-9.13311 0,-5.15192 0,-20.14863 0,-25.78175 -15.04502,-8.03607 -30.15507,-11.15745 -45.2,-11.33333 z"
       style="fill:#0048c8;fill-opacity:1"
       id="path9462"
       inkscape:connector-curvature="0" />
    <path
       sodipodi:nodetypes="cccccc"
       d="m 203.24162,43.9594 c -65.1947,-0.76216 -130.405548,55.220454 -195.60002,20.4 0,5.51708 0,20.7851 0,25.848194 80.23935,41.454196 160.56144,-50.591054 240.80002,-9.133114 0,-5.15192 0,-20.14863 0,-25.78175 -15.04502,-8.03607 -30.15507,-11.15745 -45.2,-11.33333 z"
       style="fill:#0048c8;fill-opacity:1"
       id="path4142"
       inkscape:connector-curvature="0" />
    <g
       transform="translate(0,38.416999)"
       id="g4241">
      <use
         height="256"
         width="256"
         y="0"
         x="0"
         xlink:href="#triangle"
         transform="matrix(1.0728017,-0.3177771,0,1.0728017,131.50849,87.561143)"
         id="use4213" />
      <use
         height="256"
         width="256"
         y="0"
         x="0"
         xlink:href="#triangle"
         transform="matrix(-1.0728017,0.3177771,0,-1.0728017,131.50849,87.561143)"
         id="use4215" />
    </g>
    <g
       id="g2538"
       style="display:inline">
      <path
         id="path3186"
         style="fill:url(#linearGradient3188)"
         d="m 248.35974,206.96001 c -80.24012,-42.45169 -160.480231,51.37712 -240.7195788,8.92543 0,-55.61478 0,-111.23035 0,-166.845894 C 87.879509,91.490468 168.11962,-2.3375794 248.35974,40.114878 c 0,55.614786 0,111.230352 0,166.845132 z"
         inkscape:connector-curvature="0" />
    </g>
  </g>
  <g
     inkscape:groupmode="layer"
     id="layer6"
     inkscape:label="Layer 3"
     style="display:inline"
     transform="translate(-61.91627,-35.835918)">
    <g
       id="g4077">
      <path
         transform="translate(61.91627,-244.24843)"
         id="path3751"
         d="m 216.13209,464.84904 c 1.71771,-2.97541 2.78511,-6.32785 2.78511,-9.33832 V 351.01067 c 0,-3.01047 -1.06597,-6.3622 -2.78439,-9.33761 L 109.4586,403.26105 Z"
         inkscape:connector-curvature="0"
         style="fill:#00338c;stroke-width:0.71541572;fill-opacity:1" />
      <path
         transform="translate(61.91627,-244.24843)"
         id="path3753"
         d="m 118.93786,524.17918 90.50009,-52.24967 c 2.60697,-1.50523 4.97643,-4.10434 6.69414,-7.08047 L 109.4586,403.26105 2.785113,464.84976 c 1.717713,2.97541 4.087886,5.57523 6.694145,7.07975 l 90.500082,52.24967 c 5.21324,3.01047 13.74529,3.01047 18.95852,0 z"
         inkscape:connector-curvature="0"
         style="fill:#002464;stroke-width:0.71541572;fill-opacity:1" />
      <path
         transform="translate(61.91627,-244.24843)"
         id="path3755"
         d="m 216.13281,341.67234 c -1.71843,-2.97613 -4.0886,-5.57523 -6.69486,-7.08047 L 118.93786,282.3422 c -5.21323,-3.01047 -13.74528,-3.01047 -18.95852,0 L 9.479258,334.59187 C 4.265308,337.60162 0,344.99044 0,351.01067 v 104.50005 c 0,3.01047 1.066685,6.36291 2.785113,9.33832 L 109.4586,403.26105 Z"
         inkscape:connector-curvature="0"
         style="fill:#0048c8;fill-opacity:1;stroke-width:0.71541572" />
      <g
         transform="matrix(0.7154157,0,0,0.7154157,61.91627,35.83592)"
         id="g3759">
        <path
           id="path3757"
           d="m 153,274.175 c -56.243,0 -102,-45.757 -102,-102 0,-56.243 45.757,-102 102,-102 36.292,0 70.139,19.53 88.331,50.968 l -44.143,25.544 C 188.083,130.951 171.15,121.175 153,121.175 c -28.122,0 -51,22.878 -51,51 0,28.121 22.878,51 51,51 18.152,0 35.085,-9.776 44.191,-25.515 l 44.143,25.543 c -18.192,31.441 -52.04,50.972 -88.334,50.972 z"
           inkscape:connector-curvature="0"
           style="fill:#ffffff" />
      </g>
      <g
         transform="matrix(0.7154157,0,0,0.7154157,61.91627,35.83592)"
         id="g3763">
        <polygon
           id="polygon3761"
           points="221,166.508 221,177.841 232.334,177.841 232.334,189.175 243.666,189.175 243.666,177.841 255,177.841 255,166.508 243.666,166.508 243.666,155.175 232.334,155.175 232.334,166.508 "
           style="fill:#ffffff" />
      </g>
      <g
         transform="matrix(0.7154157,0,0,0.7154157,61.91627,35.83592)"
         id="g3767">
        <polygon
           id="polygon3765"
           points="263.5,166.508 263.5,177.841 274.834,177.841 274.834,189.175 286.166,189.175 286.166,177.841 297.5,177.841 297.5,166.508 286.166,166.508 286.166,155.175 274.834,155.175 274.834,166.508 "
           style="fill:#ffffff" />
      </g>
      <path
         inkscape:connector-curvature="0"
         id="path3920"
         style="display:inline;fill:#ffffff;fill-opacity:1;stroke:none;stroke-width:0.31365791"
         d="m 206.9103,100.48853 c -25.40812,-13.189672 -50.81576,15.96205 -76.22363,2.77355 0,-17.279366 0,-34.558733 0,-51.837851 25.40787,13.188732 50.816,-15.963234 76.22363,-2.773551 0,17.279368 0,34.558726 0,51.837852 z" />
      <use
         style="display:inline;fill:#659ad2;fill-opacity:1"
         height="256"
         width="256"
         y="0"
         x="0"
         xlink:href="#triangle"
         transform="matrix(0.33331205,-0.09873113,0,0.33331205,171.02725,75.328029)"
         id="use3926" />
      <use
         style="display:inline;fill:#659ad2;fill-opacity:1"
         height="256"
         width="256"
         y="0"
         x="0"
         xlink:href="#triangle"
         transform="matrix(-0.33331205,0.09873113,0,-0.33331205,171.02725,75.328029)"
         id="use3928" />
      <path
         inkscape:connector-curvature="0"
         id="path3922"
         style="display:inline;fill:#0048c8;fill-opacity:1;stroke:none;stroke-width:0.31486851"
         d="m 192.92096,84.033612 c -20.80364,-0.236799 -41.61242,17.156618 -62.41597,6.338142 0,1.714122 0,6.457785 0,8.030852 25.60438,12.879534 51.23515,-15.718283 76.8393,-2.837592 0,-1.600668 0,-6.26004 0,-8.010215 -4.80087,-2.496748 -9.62248,-3.466542 -14.42333,-3.521187 z"
         sodipodi:nodetypes="cccccc" />
      <path
         inkscape:connector-curvature="0"
         id="path3924"
         style="display:inline;fill:#0048c8;fill-opacity:1;stroke:none;stroke-width:0.31486851"
         d="m 192.93424,49.845374 c -20.80364,-0.236797 -41.61242,17.156607 -62.41599,6.338133 0,1.714122 0,6.457786 0,8.030853 25.60439,12.879538 51.23517,-15.718283 76.83931,-2.837592 0,-1.600669 0,-6.260041 0,-8.010205 -4.80087,-2.496759 -9.62249,-3.466542 -14.42332,-3.521189 z"
         sodipodi:nodetypes="cccccc" />
    </g>
  </g>
</svg>
